<?xml version="1.0" standalone="no"?>
<!DOCTYPE svg PUBLIC "-//W3C//DTD SVG 20010904//EN"
 "http://www.w3.org/TR/2001/REC-SVG-20010904/DTD/svg10.dtd">
<svg version="1.0" xmlns="http://www.w3.org/2000/svg"
 width="199.000000pt" height="172.000000pt" viewBox="0 0 199.000000 172.000000"
 preserveAspectRatio="xMidYMid meet">

<g transform="translate(0.000000,172.000000) scale(0.100000,-0.100000)"
fill="#000000" stroke="none">
<path d="M1349 1648 c-314 -376 -474 -750 -509 -1188 -8 -98 -8 -171 0 -266
18 -212 -4 -218 219 59 107 132 194 246 195 252 1 7 -50 53 -111 104 -121 99
-133 113 -133 160 0 55 23 82 139 167 64 46 186 136 271 199 85 64 201 148
258 187 56 40 101 77 100 84 -3 10 -363 304 -373 304 -2 0 -28 -28 -56 -62z"/>
<path d="M183 1609 c-51 -34 -93 -68 -93 -76 0 -10 98 -167 126 -201 1 -2 29
14 61 36 91 62 98 61 153 -23 23 -36 45 -65 48 -65 3 0 34 18 68 41 35 22 71
39 81 37 10 -1 36 -31 58 -65 22 -34 45 -63 50 -63 12 0 205 128 205 136 0 5
-117 183 -130 198 -5 4 -36 -11 -69 -34 -37 -25 -71 -40 -84 -38 -14 2 -36 25
-62 65 -22 34 -44 62 -50 62 -5 1 -35 -17 -66 -39 -79 -55 -91 -53 -141 25
-23 36 -46 65 -52 65 -6 0 -53 -28 -103 -61z"/>
<path d="M1484 1042 c-116 -97 -234 -197 -263 -222 l-53 -46 139 -84 c76 -46
146 -88 155 -94 14 -8 23 -5 46 18 27 24 29 31 20 59 -6 21 -6 41 0 58 6 15
104 104 229 208 120 101 219 186 221 190 3 7 -246 91 -268 90 -8 0 -110 -80
-226 -177z"/>
<path d="M6 1088 c26 -183 65 -275 160 -376 77 -83 169 -142 188 -121 8 8 53
105 102 217 56 128 93 202 102 202 20 0 41 -30 42 -57 0 -12 -43 -119 -96
-238 l-97 -215 105 -157 c58 -87 124 -189 149 -228 43 -69 44 -69 51 -40 13
56 70 796 66 856 -11 146 -159 231 -293 168 -58 -27 -73 -49 -145 -211 -32
-73 -63 -134 -69 -136 -14 -5 -25 62 -18 112 3 23 20 79 38 125 17 45 27 86
23 91 -8 7 -269 50 -302 50 -9 0 -11 -12 -6 -42z"/>
</g>
</svg>
